{"title":"Police Story 2013  HC ENG SUBBED READNFO x264 Ac3-MiLLENiUM","uid":9524327,"size":975743896,"categoryP":"video","categoryS":"movies","magnet":"?xt=urn:btih:2669eefc04aa364a6be4aa338f6ad52eb206b122&amp;dn=Police+Story+2013++HC+ENG+SUBBED+READNFO+x264+Ac3-MiLLENiUM&amp;tr=udp%3A%2F%2Ftracker.openbittorrent.com%3A80&amp;tr=udp%3A%2F%2Fopen.demonii.com%3A1337&amp;tr=udp%3A%2F%2Ftracker.coppersurfer.tk%3A6969&amp;tr=udp%3A%2F%2Fexodus.desync.com%3A6969","seeders":3,"leechers":2,"uploader":"NewSky005","files":7,"time":1390711439,"description":"General &lt;a href=&quot;\nhttp://www.imdb.com/title/tt2599716/&quot; rel=&quot;nofollow&quot; target=&quot;_NEW&quot;&gt;\nhttp://www.imdb.com/title/tt2599716/&lt;/a&gt;\nUnique ID                                : 205027227087831988821445660061623647728 (0x9A3ECEBF499192ACBBFC9FEB3BDBFDF0)\nComplete name                            : Police Story 2013  HC ENG SUBBED READNFO x264 Ac3-MiLLENiUM.mkv\n[quote]source                                   : 720p [thanks]\nFormat                                   : Matroska\nFormat version                           : Version 4 / Version 2\nFile size                                : 900 MiB\nDuration                                 : 1h 46mn\nOverall bit rate mode                    : Variable\nOverall bit rate                         : 1 183 Kbps\nEncoded date                             : UTC 2014-01-26 00:50:18\nWriting application                      : mkvmerge v6.7.0 ('Back to the Ground') 64bit built on Jan  8 2014 15:10:52\nWriting library                          : libebml v1.3.0 + libmatroska v1.4.1\n\nVideo\nID                                       : 1\nFormat                                   : AVC\nFormat/Info                              : Advanced Video Codec\nFormat profile                           : &lt;a class=&quot;__cf_email__&quot; href=&quot;/cdn-cgi/l/email-protection&quot; data-cfemail=&quot;2c64454b446c6018021d&quot;&gt;[email&amp;#160;protected]&lt;/a&gt;&lt;script cf-hash='f9e31' type=&quot;text/javascript&quot;&gt;\n/* &lt;![CDATA[ */!function(){try{var t=&quot;currentScript&quot;in document?document.currentScript:function(){for(var t=document.getElementsByTagName(&quot;script&quot;),e=t.length;e--;)if(t[e].getAttribute(&quot;cf-hash&quot;))return t[e]}();if(t&amp;&amp;t.previousSibling){var e,r,n,i,c=t.previousSibling,a=c.getAttribute(&quot;data-cfemail&quot;);if(a){for(e=&quot;&quot;,r=parseInt(a.substr(0,2),16),n=2;a.length-n;n+=2)i=parseInt(a.substr(n,2),16)^r,e+=String.fromCharCode(i);e=document.createTextNode(e),c.parentNode.replaceChild(e,c)}}}catch(u){}}();/* ]]&gt; */&lt;/script&gt;\nFormat settings, CABAC                   : Yes\nFormat settings, ReFrames                : 3 frames\nCodec ID                                 : V_MPEG4/ISO/AVC\nDuration                                 : 1h 46mn\nBit rate mode                            : Variable\nBit rate                                 : 968 Kbps\nMaximum bit rate                         : 40.0 Mbps\nWidth                                    : 720 pixels\nHeight                                   : 304 pixels\nDisplay aspect ratio                     : 2.35:1\nFrame rate                               : 25.000 fps\nColor space                              : YUV\nChroma subsampling                       : 4:2:0\nBit depth                                : 8 bits\nScan type                                : Progressive\nBits/(Pixel*Frame)                       : 0.177\nStream size                              : 736 MiB (82%)\nWriting library                          : x264 core 142 r2389 956c8d8\nLanguage                                 : English\nDefault                                  : Yes\nForced                                   : No\nColor primaries                          : BT.709-5, BT.1361, IEC 61966-2-4, SMPTE RP177\nTransfer characteristics                 : BT.709-5, BT.1361\nMatrix coefficients                      : BT.709-5, BT.1361, IEC 61966-2-4 709, SMPTE RP177\n\nAudio\nID                                       : 2\nFormat                                   : AC-3\nFormat/Info                              : Audio Coding 3\nMode extension                           : CM (complete main)\nCodec ID                                 : A_AC3\nDuration                                 : 1h 46mn\nBit rate mode                            : Constant\nBit rate                                 : 192 Kbps\nChannel(s)                               : 2 channels\nChannel positions                        : Front: L R\nSampling rate                            : 44.1 KHz\nBit depth                                : 16 bits\nCompression mode                         : Lossy\nStream size                              : 146 MiB (16%)\nDefault                                  : Yes\nForced                                   : No[/quote]\n\nNOTES :\n\nHARD CODED ENGLISH SUBS WITH MANDARIN AUDIO\n\n[img]http://s30.postimg.org/s58s30869/Police_Story_2013_HC_ENG_SUBBED_READNFO_x264_Ac.jpg[/img]\n[img]http://s30.postimg.org/vdd9g1ug1/Police_Story_2013_HC_ENG_SUBBED_READNFO_x264_Ac.jpg[/img]\n[img]http://s30.postimg.org/5s11g778h/Police_Story_2013_HC_ENG_SUBBED_READNFO_x264_Ac.jpg[/img]\n[img]http://s30.postimg.org/ss7osj529/Police_Story_2013_HC_ENG_SUBBED_READNFO_x264_Ac.jpg[/img]\n[img]http://s30.postimg.org/bcdiqu63l/Police_Story_2013_HC_ENG_SUBBED_READNFO_x264_Ac.jpg[/img]","torrent":{"xt":"urn:btih:2669eefc04aa364a6be4aa338f6ad52eb206b122","amp;dn":"Police+Story+2013++HC+ENG+SUBBED+READNFO+x264+Ac3-MiLLENiUM","amp;tr":["udp%3A%2F%2Ftracker.openbittorrent.com%3A80","udp%3A%2F%2Fopen.demonii.com%3A1337","udp%3A%2F%2Ftracker.coppersurfer.tk%3A6969","udp%3A%2F%2Fexodus.desync.com%3A6969"],"infoHash":"2669eefc04aa364a6be4aa338f6ad52eb206b122","infoHashBuffer":{"type":"Buffer","data":[38,105,238,252,4,170,54,74,107,228,170,51,143,106,213,46,178,6,177,34]},"announce":[],"urlList":[]}}